Coordinates
version=1
nRows=12
nColumns=24
inDegrees=yes

Units are S.I. units (second, meters, Newtons, ...)
Angles are in degrees.

endheader
time	pelvis_tilt	pelvis_list	pelvis_rotation	pelvis_tx	pelvis_ty	pelvis_tz	hip_flexion_r	hip_adduction_r	hip_rotation_r	knee_angle_r	ankle_angle_r	subtalar_angle_r	mtp_angle_r	hip_flexion_l	hip_adduction_l	hip_rotation_l	knee_angle_l	ankle_angle_l	subtalar_angle_l	mtp_angle_l	lumbar_extension	lumbar_bending	lumbar_rotation
      0.82883333	      0.89654103	      4.59990181	     -2.51457049	     -0.41917483	      1.01802563	      0.26491448	     10.58294528	     -0.58215620	      4.72356475	    -19.12701735	      7.97835702	    -11.68062345	     -1.80009868	     14.26900431	      2.91505200	     -8.29620648	    -66.64276869	     -0.46074500	    -17.24951362	     -2.31496341	     -1.63994527	     -4.78973109	      3.49798183
      0.83300000	      0.90799425	      4.68514458	     -2.69071371	     -0.41409844	      1.01884008	      0.26519491	     10.11186335	     -0.70177667	      4.73835984	    -18.79314166	      8.14772128	    -11.45331828	     -1.75216271	     14.77771369	      2.96778302	     -8.47973504	    -66.24985909	     -0.10802306	    -16.74494441	     -2.24088492	     -1.66102691	     -4.86042177	      3.90378790
      0.83716667	      0.89458584	      4.77281600	     -2.87568758	     -0.40902817	      1.01957982	      0.26547948	      9.67162154	     -0.82356390	      4.76362121	    -18.45870564	      8.25223878	    -11.23443624	     -1.70969428	     15.29941331	      3.01528841	     -8.67413443	    -65.80531915	      0.21824778	    -16.22115163	     -2.16649709	     -1.64332978	     -4.92578717	      4.19961005
      0.84133333	      0.89441487	      4.86233072	     -3.06087746	     -0.40397311	      1.02031747	      0.26575850	      9.21420605	     -0.95113028	      4.78740831	    -18.11444914	      8.36560439	    -11.00304751	     -1.66123882	     15.79393150	      3.06543232	     -8.86328790	    -65.31044193	      0.53292245	    -15.69996237	     -2.07689400	     -1.64918131	     -5.00281941	      4.51600946
      0.84550000	      0.89674779	      4.94839634	     -3.25330273	     -0.39892283	      1.02101095	      0.26603589	      8.75994649	     -1.07738474	      4.80520834	    -17.77841206	      8.46911451	    -10.78092689	     -1.61349759	     16.27089369	      3.10703785	     -9.05802863	    -64.76922154	      0.84073347	    -15.15670118	     -1.98184440	     -1.64872094	     -5.06389432	      4.81723642
      0.84966667	      0.88884511	      5.02352004	     -3.43736701	     -0.39389431	      1.02163856	      0.26630994	      8.31315323	     -1.19158459	      4.82860398	    -17.43414044	      8.57273049	    -10.56197622	     -1.56525231	     16.75132636	      3.13165239	     -9.24580067	    -64.19749346	      1.14220544	    -14.62173561	     -1.88106576	     -1.64366856	     -5.11880672	      5.11806768
      0.85383333	      0.89600978	      5.10226292	     -3.61848438	     -0.38888140	      1.02225815	      0.26658118	      7.84936102	     -1.31247722	      4.85197371	    -17.08711846	      8.69216959	    -10.34043603	     -1.51161710	     17.20131898	      3.16145055	     -9.42670279	    -63.57736123	      1.42902536	    -14.10977291	     -1.76531203	     -1.66242762	     -5.18813442	      5.43466674
      0.85800000	      0.88058166	      5.18186840	     -3.80668419	     -0.38387114	      1.02280620	      0.26684754	      7.41715961	     -1.43478446	      4.87517289	    -16.74678718	      8.74355274	    -10.13768489	     -1.47664060	     17.65983239	      3.18745294	     -9.61475445	    -62.90921300	      1.67110102	    -13.61238831	     -1.68430327	     -1.64537414	     -5.25024044	      5.66130000
      0.86216667	      0.87441685	      5.24005049	     -3.98087825	     -0.37887617	      1.02332434	      0.26711191	      6.96496584	     -1.53367966	      4.90018588	    -16.39266319	      8.84229780	     -9.94264849	     -1.43966260	     18.09862187	      3.18857412	     -9.78592168	    -62.21628237	      1.93769179	    -13.10949619	     -1.59716918	     -1.64883368	     -5.29422696	      5.94217632
      0.86633333	      0.87547273	      5.30105739	     -4.15666993	     -0.37389937	      1.02380424	      0.26736545	      6.51125039	     -1.63894074	      4.92150976	    -16.04711882	      8.94011461	     -9.75581805	     -1.40202854	     18.51545349	      3.19292596	     -9.95653122	    -61.48110377	      2.17988111	    -12.64272884	     -1.50591988	     -1.65929663	     -5.33562926	      6.23177647
      0.87050000	      0.87766971	      5.33224399	     -4.31655566	     -0.36893475	      1.02423160	      0.26760620	      6.04432530	     -1.71107729	      4.94849569	    -15.68757703	      9.07835685	     -9.58539896	     -1.34128050	     18.92245621	      3.16698076	    -10.10330862	    -60.72956161	      2.43616907	    -12.20601787	     -1.35533119	     -1.68061180	     -5.34233316	      6.60599096
      0.87466667	      0.85039734	      5.37304873	     -4.48323330	     -0.36398983	      1.02457715	      0.26784928	      5.61992542	     -1.79184189	      4.98547680	    -15.33791038	      9.14322936	     -9.41541183	     -1.25186428	     19.34615384	      3.14864265	    -10.25499007	    -59.93009214	      2.63161678	    -11.82235732	     -1.11818184	     -1.66950184	     -5.35444928	      6.94271133
